# xmcd
#
# Track frame offsets:
#	150
#	8651
#	17628
#	32292
#	42372
#	54117
#	62940
#	81355
#	89499
#	96373
#	106737
#	115434
#	123507
#	134510
#	142798
#	150819
#	159646
#	169616
#
# Disc length: 2367 seconds
#
# Revision: 0
# Processed by: cddbd v1.5.2PL0 Copyright (c) Steve Scherf et al.
# Submitted via: dBpowerAMP V4.0
#
DISCID=da093d12
DTITLE=Ralph Stanley - Old-Time Pickin'
DYEAR=2008
DGENRE=Bluegrass
TTITLE0=Rocky Island
TTITLE1=Shout Little Lulie
TTITLE2=Battle Ax
TTITLE3=Pretty Girls , City Lights
TTITLE4=Cripple Creek
TTITLE5=I've Got A Mule To Ride
TTITLE6=Old McDonald - Cindy
TTITLE7=Shady Grove
TTITLE8=John Henry
TTITLE9=Little Birdie
TTITLE10=Cuttin' The Cornbread
TTITLE11=Bound To Ride
TTITLE12=Married Life Blues
TTITLE13=Black-Eyed Susie
TTITLE14=Kentucky Shine
TTITLE15=True Blue Bill
TTITLE16=Dixieland
TTITLE17=Old Time Pickin'
EXTD=
EXTT0=
EXTT1=
EXTT2=
EXTT3=
EXTT4=
EXTT5=
EXTT6=
EXTT7=
EXTT8=
EXTT9=
EXTT10=
EXTT11=
EXTT12=
EXTT13=
EXTT14=
EXTT15=
EXTT16=
EXTT17=
PLAYORDER=
